<svg width="512" height="512" xmlns="http://www.w3.org/2000/svg">

    <g>
        <title>background</title>
        <rect fill="none" id="canvas_background" height="402" width="582" y="-1" x="-1"/>
    </g>
    <g>
        <title>Layer 1</title>
        <path fill="#efb730" id="svg_2"
              d="m475.8,84.2c3.9,0 7,-3.1 7,-7l0,-39.2c0,-3.9 -3.1,-7 -7,-7l-439.6,0c-3.9,0 -7,3.1 -7,7l0,39.2c0,3.9 3.1,7 7,7l43.6,0l0,343.7l-43.6,0c-3.9,0 -7,3.1 -7,7l0,39.1c0,3.9 3.1,7 7,7l439.7,0c3.9,0 7,-3.1 7,-7l0,-39.2c0,-3.9 -3.1,-7 -7,-7l-43.6,0l0,-343.6l43.5,0zm-50.5,357.6l43.6,0l0,25.2l-425.7,0l0,-25.2l43.6,0c3.9,0 7,-3.1 7,-7l0,-357.6c0,-3.9 -3.1,-7 -7,-7l-43.6,0l0,-25.2l425.7,0l0,25.2l-43.6,0c-3.9,0 -7,3.1 -7,7l0,357.7c0,3.8 3.1,6.9 7,6.9z"
              class="st0"/>
        <path fill="#efb730" id="svg_3"
              d="m386.1,70.2l-260.2,0c-3.9,0 -7,3.1 -7,7l0,357.7c0,3.9 3.1,7 7,7l260.2,0c3.9,0 7,-3.1 7,-7l0,-357.7c0,-3.9 -3.1,-7 -7,-7zm-103.8,256l17.5,0l0,44.4l-17.5,0l0,-44.4zm24.5,-14l-31.5,0c-3.9,0 -7,3.1 -7,7l0,22.2l-11.7,0l0,-22.2c0,-3.9 -3.1,-7 -7,-7l-31.5,0c-3.9,0 -7,3.1 -7,7l0,22.2l-78.2,0l0,-78.4l18.1,0l0,22.2c0,3.9 3.1,7 7,7l31.5,0c3.9,0 7,-3.1 7,-7l0,-22.2l11.7,0l0,22.2c0,3.9 3.1,7 7,7l31.5,0c3.9,0 7,-3.1 7,-7l0,-22.2l125.4,0l0,78.4l-65.3,0l0,-22.2c0,-3.9 -3.2,-7 -7,-7zm-81.7,14l17.5,0l0,44.4l-17.5,0l0,-44.4zm30.3,-140.4l-17.5,0l0,-44.4l17.5,0l0,44.4zm-24.5,14l31.5,0c3.9,0 7,-3.1 7,-7l0,-22.2l11.7,0l0,22.2c0,3.9 3.1,7 7,7l31.5,0c3.9,0 7,-3.1 7,-7l0,-22.2l52.5,0l0,78.4l-125.4,0l0,-22.2c0,-3.9 -3.1,-7 -7,-7l-31.5,0c-3.9,0 -7,3.1 -7,7l0,22.2l-11.7,0l0,-22.2c0,-3.9 -3.1,-7 -7,-7l-31.5,0c-3.9,0 -7,3.1 -7,7l0,22.2l-18.1,0l0,-78.4l91,0l0,22.2c0,3.9 3.2,7 7,7zm81.7,-14l-17.5,0l0,-44.4l17.5,0l0,44.4zm-90.4,48l17.5,0l0,44.4l-17.5,0l0,-44.4zm-57.2,0l17.5,0l0,22.2c0,0 0,0 0,0s0,0 0,0l0,22.2l-17.5,0l0,-44.4zm214.1,-149.6l0,72.5l-52.5,0l0,-22.2c0,-3.9 -3.1,-7 -7,-7l-31.5,0c-3.9,0 -7,3.1 -7,7l0,22.2l-11.7,0l0,-22.2c0,-3.9 -3.1,-7 -7,-7l-31.5,0c-3.9,0 -7,3.1 -7,7l0,22.2l-91,0l0,-72.5l246.2,0zm-246.2,343.6l0,-72.5l78.2,0l0,22.2c0,3.9 3.1,7 7,7l31.5,0c3.9,0 7,-3.1 7,-7l0,-22.2l11.7,0l0,22.2c0,3.9 3.1,7 7,7l31.5,0c3.9,0 7,-3.1 7,-7l0,-22.2l65.3,0l0,72.5l-246.2,0z"
              class="st0"/>
    </g>
</svg>